<?xml version="1.0" encoding="UTF-8" standalone="no"?>
<!-- Created with Inkscape (http://www.inkscape.org/) -->

<svg
   width="81.280006mm"
   height="81.280006mm"
   viewBox="0 0 81.280006 81.280006"
   version="1.1"
   id="svg5"
   xml:space="preserve"
   sodipodi:docname="logo.svg"
   inkscape:version="1.2.2 (b0a8486541, 2022-12-01)"
   xmlns:inkscape="http://www.inkscape.org/namespaces/inkscape"
   xmlns:sodipodi="http://sodipodi.sourceforge.net/DTD/sodipodi-0.dtd"
   xmlns="http://www.w3.org/2000/svg"
   xmlns:svg="http://www.w3.org/2000/svg"><sodipodi:namedview
     id="namedview7"
     pagecolor="#ffffff"
     bordercolor="#000000"
     borderopacity="0.25"
     inkscape:showpageshadow="2"
     inkscape:pageopacity="0.0"
     inkscape:pagecheckerboard="0"
     inkscape:deskcolor="#d1d1d1"
     inkscape:document-units="mm"
     showgrid="false"
     inkscape:zoom="1.2938725"
     inkscape:cx="-307.60373"
     inkscape:cy="286.3497"
     inkscape:window-width="3840"
     inkscape:window-height="2109"
     inkscape:window-x="0"
     inkscape:window-y="27"
     inkscape:window-maximized="1"
     inkscape:current-layer="layer1" /><defs
     id="defs2" /><g
     inkscape:label="Layer 1"
     inkscape:groupmode="layer"
     id="layer1"
     transform="translate(-67.631804,-62.740577)"><g
       id="g679"
       transform="matrix(0.5,0,0,0.5,66.921274,61.931641)"><path
         style="fill:#fdfdfd;stroke-width:0.0846667"
         d="m 88.924066,105.36213 c -2.522017,-0.10178 -5.610556,-0.4027 -7.662334,-0.74657 -1.372145,-0.22997 -2.361034,-0.42849 -2.417963,-0.48542 -0.02076,-0.0208 0.295711,-1.43428 0.703274,-3.14115 l 0.741022,-3.10341 0.598716,-8.47e-4 0.598716,-8.47e-4 0.336793,-1.418166 0.336794,-1.418167 -0.584534,-0.02505 -0.584535,-0.02505 0.03672,-0.14428 c 0.02019,-0.07936 1.099268,-4.573406 2.397939,-9.986782 l 2.361222,-9.842509 0.595419,-4.23e-4 0.595418,-4.23e-4 1.349206,-5.651079 c 0.742061,-3.108094 1.365267,-5.698705 1.384893,-5.756913 l 0.03569,-0.105833 H 89.144796 88.54307 v -0.08676 c 0,-0.137215 0.297518,-0.218191 1.653015,-0.449902 2.620687,-0.447987 4.540885,-0.664346 7.321652,-0.824976 l 1.735667,-0.10026 2.074326,0.04952 2.07434,0.04952 0.97366,0.131461 c 1.38516,0.187019 2.94126,0.526828 3.97676,0.868412 l 0.89158,0.294106 0.80433,0.05886 0.80433,0.05886 1.143,0.561848 c 1.3798,0.678246 2.40057,1.334558 3.46067,2.225065 l 0.79366,0.666695 0.61406,0.70237 c 0.67529,0.772413 1.45919,1.886106 1.9271,2.737854 0.16629,0.302683 0.45629,0.913094 0.64446,1.356467 0.34353,0.809411 0.94205,2.749104 0.94205,3.052971 v 0.162562 h -0.55033 -0.55033 v 0.113211 c 0,0.06226 0.0583,0.49089 0.12953,0.9525 l 0.12954,0.839289 0.0515,1.481667 0.0515,1.481667 -0.10009,1.439333 c -0.11671,1.678359 -0.3445,3.31671 -0.65261,4.693818 -0.65121,2.910629 -1.79004,5.665353 -3.30396,7.992027 l -0.61521,0.945489 0.56095,0.04233 0.56096,0.04233 -0.60608,0.754634 c -0.33335,0.415045 -0.89198,1.05322 -1.24141,1.418167 l -0.63533,0.663533 h -0.60223 -0.60223 l -0.58707,0.543534 c -0.78768,0.729277 -2.08074,1.712977 -3.14085,2.389417 l -0.86929,0.55468 -1.524,0.74764 -1.524,0.74764 -1.02832,0.38102 c -1.80369,0.66831 -4.125214,1.27603 -6.16834,1.6147 -2.493653,0.41336 -5.896009,0.6102 -8.636,0.49963 z m 6.096,-7.150914 c 0.465667,-0.04703 1.151467,-0.139217 1.524,-0.204868 l 0.677334,-0.119346 0.635,-0.0024 0.635,-0.0023 0.819658,-0.208822 c 2.006732,-0.511234 3.860542,-1.323382 5.444552,-2.385271 l 0.4222,-0.283033 h -0.57884 -0.57883 l 0.66463,-0.537184 c 0.36555,-0.295453 1.06468,-0.955726 1.55363,-1.467282 l 0.889,-0.930097 0.60774,-0.887197 c 1.93176,-2.820018 2.94352,-5.904529 3.25243,-9.915532 l 0.0994,-1.291042 -0.0536,-1.058333 c -0.0606,-1.197277 -0.22399,-2.2956 -0.4752,-3.195095 -0.0941,-0.337019 -0.17113,-0.632294 -0.17113,-0.656167 0,-0.02387 0.24765,-0.0434 0.55033,-0.0434 h 0.55033 v -0.07677 c 0,-0.189446 -0.5513,-1.276038 -0.98503,-1.941424 l -0.47619,-0.730539 -0.56056,-0.556974 c -0.66091,-0.656698 -1.13818,-0.994569 -2.02553,-1.433933 -0.85064,-0.421191 -1.76182,-0.718653 -2.83311,-0.924894 l -0.86658,-0.166831 -1.27,-0.100045 -1.27,-0.100046 -1.43933,0.05694 c -1.363261,0.05393 -3.095592,0.194228 -3.157051,0.25569 -0.02813,0.02812 -0.35218,1.350081 -1.032612,4.212456 l -0.356396,1.49929 -0.600278,0.02471 -0.600278,0.02471 -2.380497,9.948334 -2.380496,9.948334 0.57597,0.02488 c 0.31678,0.01368 0.57597,0.04433 0.57597,0.06811 0,0.05419 -0.483429,2.081733 -0.598593,2.510519 l -0.08527,0.3175 h -0.589398 -0.589407 v 0.129659 0.129658 l 0.111015,0.0426 c 0.06106,0.02344 0.737336,0.07511 1.502833,0.114825 l 1.391819,0.07223 1.312333,-0.03806 c 0.721783,-0.02094 1.693333,-0.07654 2.159,-0.123571 z m -80.335195,3.503824 c -0.315448,-1.757887 -0.595386,-3.339037 -0.622087,-3.513662 l -0.04855,-0.3175 h 0.588679 0.588679 l -0.145219,-0.8255 c -0.07987,-0.454025 -0.190834,-1.101725 -0.246584,-1.439334 l -0.10136,-0.613833 H 14.115024 13.53162 l -0.04108,-0.1905 C 13.377745,94.2917 12.446173,88.252875 11.919951,84.633544 11.564769,82.190618 10.649728,75.353554 10.649728,75.14261 v -0.118734 h 0.599394 0.599393 l -0.04839,-0.232833 c -0.06441,-0.309951 -0.664045,-5.693784 -0.935913,-8.403167 -0.119152,-1.18745 -0.237541,-2.320925 -0.263085,-2.518834 l -0.04645,-0.359833 H 9.9787145 9.4027439 l -0.053842,-0.392817 c -0.029613,-0.21605 -0.053842,-0.44465 -0.053842,-0.508 v -0.115183 h 4.4026671 4.402667 v 0.243417 c 0,0.133879 0.02381,0.362479 0.05292,0.508 l 0.05292,0.264583 h 0.582083 0.582084 v 0.178873 c 0,0.368463 0.705785,9.753743 0.812673,10.806628 l 0.05372,0.529166 h -0.610475 -0.610475 l 0.0495,0.402167 c 0.02723,0.221192 0.108538,1.068917 0.180693,1.883834 0.377263,4.260845 0.888322,8.982888 1.525692,14.097 0.42511,3.410975 0.4535,3.598334 0.545249,3.598334 0.138518,0 4.655765,-7.498123 7.217555,-11.980334 1.213851,-2.123803 3.081365,-5.480458 3.882155,-6.977759 l 0.54271,-1.014748 0.619904,-0.02541 0.619905,-0.02541 1.14482,-2.159 c 1.298059,-2.447994 4.685038,-9.127645 4.685038,-9.239627 v -0.07371 h -0.550334 c -0.302683,0 -0.550333,-0.01821 -0.550333,-0.04046 0,-0.02225 0.103187,-0.250851 0.229304,-0.508 l 0.229305,-0.467542 h 4.427362 4.427363 v 0.05665 c 0,0.03116 -0.113691,0.258103 -0.252646,0.504319 l -0.252646,0.447664 0.589869,0.02485 0.589867,0.02485 -1.641865,3.048001 c -0.903026,1.6764 -2.304855,4.24815 -3.115175,5.715 l -1.473308,2.667 -0.605993,0.02482 -0.605994,0.02482 -0.820036,1.456846 C 37.31011,82.428309 33.433355,88.969375 30.496578,93.62583 l -0.865486,1.372286 0.575785,0.02471 0.575784,0.02471 -0.901299,1.414526 -0.9013,1.414518 -0.600363,0.0036 -0.600362,0.0036 -1.082922,1.629834 c -0.595607,0.896406 -1.658944,2.476586 -2.362971,3.511496 l -1.280049,1.88167 -3.897492,0.002 -3.897492,0.002 -0.57354,-3.19617 z m 30.424192,3.10547 c 0,-0.0499 0.36195,-1.60532 0.804333,-3.45652 0.442384,-1.851193 0.804334,-3.389858 0.804334,-3.419254 0,-0.02939 0.275466,-0.06463 0.612148,-0.07832 l 0.612149,-0.02488 0.316382,-1.312333 c 0.174011,-0.721783 0.317643,-1.359958 0.319185,-1.418167 l 0.0028,-0.105833 H 48.030063 47.47973 v -0.09684 c 0,-0.08789 4.464591,-18.821209 4.663275,-19.566993 l 0.08458,-0.3175 h 0.579352 0.579352 l 0.101447,-0.40216 C 53.761119,73.537887 56.11573,63.647848 56.11573,63.583388 v -0.07418 h -0.550333 -0.550333 v -0.131841 c 0,-0.07251 0.04262,-0.301113 0.09472,-0.508 l 0.09472,-0.376159 h 4.149199 4.149199 l -0.05292,0.254 c -0.0291,0.1397 -0.07673,0.3683 -0.105834,0.508 l -0.05292,0.254 h 0.560916 0.560917 v 0.09297 c 0,0.07429 -2.29141,9.679447 -2.63808,11.058337 l -0.08958,0.356309 -0.595117,0.02469 -0.595117,0.02469 -2.390323,9.948334 -2.390323,9.948334 0.581604,0.02487 c 0.319882,0.01368 0.581603,0.03793 0.581603,0.05389 0,0.04207 -0.59266,2.518317 -0.644793,2.694068 l -0.04395,0.148167 h 8.816745 8.816745 l -0.04486,0.148166 c -0.02467,0.08149 -0.390877,1.595967 -0.813786,3.365497 -0.422908,1.76954 -0.788855,3.28401 -0.813216,3.3655 l -0.04429,0.14817 H 58.607691 45.109063 Z m 83.327457,-0.0575 c 0.0194,-0.0815 0.39527,-1.66226 0.83537,-3.51282 l 0.80018,-3.364657 0.59871,-8.47e-4 0.59872,-8.47e-4 0.3368,-1.418166 0.33679,-1.418167 -0.58454,-0.02505 -0.58453,-0.02505 0.0359,-0.14428 c 0.0198,-0.07936 1.09887,-4.573406 2.398,-9.986781 l 2.36205,-9.842501 0.59536,-1.69e-4 0.59536,-1.7e-4 0.62804,-2.645683 c 0.34544,-1.455127 0.64478,-2.69331 0.66523,-2.751518 l 0.0372,-0.105834 h -6.2744 c -3.45092,0 -6.27439,-0.01483 -6.27439,-0.03295 0,-0.0479 1.35139,-5.65447 1.4053,-5.830219 l 0.0455,-0.148166 h -0.59838 c -0.3291,0 -0.59675,-0.0095 -0.59478,-0.02117 0.002,-0.01164 0.0525,-0.230717 0.11224,-0.486833 l 0.10864,-0.465667 16.70356,-0.02138 16.70356,-0.02138 -0.0576,0.317711 c -0.0317,0.174741 -0.0782,0.403436 -0.10331,0.508211 l -0.0457,0.1905 h 0.58891 0.58891 l -0.73065,2.9845 -0.73065,2.9845 -6.27604,0.02171 -6.27603,0.02171 -0.42371,1.756292 c -0.23304,0.965961 -0.52907,2.203968 -0.65785,2.751127 l -0.23414,0.994833 -0.59869,4.23e-4 -0.5987,4.24e-4 -2.35176,9.799722 c -1.29346,5.389849 -2.37423,9.885446 -2.4017,9.990221 l -0.05,0.1905 h 0.6116 0.6116 l -0.0402,0.105833 c -0.0221,0.05821 -0.18295,0.704325 -0.35743,1.43582 l -0.31722,1.329986 -0.59997,0.02468 -0.59998,0.02468 -0.39633,1.651 c -0.21797,0.908052 -0.59527,2.479672 -0.83844,3.492502 l -0.44212,1.8415 h -4.14975 -4.14975 l 0.0352,-0.14817 z"
         id="path687" /><path
         style="fill:#b9b5c7;stroke-width:0.0846667"
         d="m 60.666564,97.820395 c 2.433108,-0.01248 6.414559,-0.01248 8.847667,0 2.433109,0.01248 0.442384,0.02269 -4.423833,0.02269 -4.866217,0 -6.856943,-0.01021 -4.423834,-0.02269 z"
         id="path685" /><path
         style="fill:#62548f;stroke-width:0.0846667"
         d="m 146.4429,69.583492 0.0641,-0.06405 6.26055,0.02173 6.26055,0.02173 -6.32462,0.04232 -6.32462,0.04232 z m -17.87367,-0.04175 c 1.73461,-0.01279 4.57306,-0.01279 6.30767,0 1.73461,0.01279 0.31539,0.02326 -3.15383,0.02326 -3.46922,0 -4.88844,-0.01047 -3.15384,-0.02326 z M 11.475228,62.429771 c 1.222375,-0.01322 3.222625,-0.01322 4.445,0 1.222375,0.01322 0.22225,0.02404 -2.2225,0.02404 -2.44475,0 -3.444875,-0.01082 -2.2225,-0.02404 z m 30.141335,0 c 1.222375,-0.01322 3.222625,-0.01322 4.445,0 1.222375,0.01322 0.22225,0.02404 -2.2225,0.02404 -2.44475,0 -3.444875,-0.01082 -2.2225,-0.02404 z m 15.657458,2.3e-5 c 1.12601,-0.01333 2.99291,-0.01334 4.148667,-2.8e-5 1.155757,0.01331 0.234476,0.02422 -2.047291,0.02424 -2.281767,1.5e-5 -3.227386,-0.01088 -2.101376,-0.02421 z m 77.094879,-8e-5 c 4.59846,-0.0121 12.12321,-0.0121 16.72167,0 4.59846,0.0121 0.83608,0.022 -8.36083,0.022 -9.19692,0 -12.9593,-0.0099 -8.36084,-0.022 z"
         id="path683" /><path
         style="fill:#3e1d7f;stroke-width:0.0846667"
         d="M 1.4210603,82.897877 V 1.6178719 H 82.701065 163.98107 V 82.897877 164.17788 H 82.701065 1.4210603 Z M 95.483421,105.21575 c 1.68656,-0.20357 2.705295,-0.37144 3.981645,-0.65612 2.018114,-0.4501 4.081274,-1.10209 5.594914,-1.76807 2.64502,-1.16377 4.81672,-2.53278 6.76642,-4.26546 l 0.71967,-0.639555 0.60868,-0.0014 0.60869,-0.0014 0.77969,-0.867833 c 0.42882,-0.477308 0.96772,-1.115483 1.19755,-1.418167 l 0.41788,-0.550333 -0.55329,-0.04233 -0.5533,-0.04233 0.61086,-0.938792 c 1.8856,-2.897844 3.12809,-6.341009 3.69419,-10.237208 l 0.17222,-1.185334 0.10018,-1.718613 0.10017,-1.718613 -0.10449,-1.456387 c -0.0575,-0.801013 -0.15358,-1.732612 -0.21359,-2.070221 l -0.1091,-0.613833 h 0.57999 0.58 v -0.112568 c 0,-0.06191 -0.13043,-0.585787 -0.28984,-1.164166 -0.31487,-1.142377 -0.82174,-2.42704 -1.30019,-3.295266 -0.779,-1.413642 -1.85972,-2.808909 -2.94608,-3.803535 -1.13473,-1.038908 -2.74366,-2.087632 -4.23362,-2.759539 l -0.83994,-0.378774 -0.59266,-0.001 -0.59267,-10e-4 -0.88864,-0.302351 c -1.7182,-0.5846 -3.7473,-0.975077 -5.88469,-1.132435 -3.519081,-0.259081 -8.93282,0.121035 -13.316488,0.934991 l -1.021926,0.18975 -0.0407,0.155652 -0.04071,0.155652 h 0.594622 0.594614 l -0.03727,0.148166 c -0.0205,0.08149 -0.641943,2.672292 -1.38099,5.757334 l -1.343711,5.609167 -0.597391,9.91e-4 -0.597391,9.9e-4 -2.364951,9.883846 c -1.300723,5.436162 -2.381124,9.931513 -2.400892,9.989722 l -0.03594,0.105833 h 0.610784 0.610784 l -0.04005,0.105833 c -0.02203,0.05821 -0.181805,0.704308 -0.35506,1.435769 l -0.31501,1.329944 -0.601773,0.02472 -0.601772,0.02473 -0.742743,3.090333 c -0.408509,1.69969 -0.74401,3.11443 -0.745559,3.14386 -0.004,0.0768 2.026068,0.4582 3.739059,0.70244 1.231674,0.17563 2.916047,0.34445 5.021125,0.50328 0.232834,0.0176 1.871134,0.0219 3.640667,0.01 l 3.217334,-0.0223 z m -5.035355,-6.964055 c -0.186267,-0.01488 -0.688603,-0.04994 -1.116305,-0.07793 l -0.777638,-0.05087 0.04586,-0.119507 0.04586,-0.119515 h 0.58199 0.581999 l 0.04533,-0.1905 c 0.02493,-0.104775 0.178054,-0.735584 0.340276,-1.401792 0.16223,-0.666209 0.294953,-1.228184 0.294953,-1.248834 0,-0.02065 -0.269875,-0.03754 -0.599719,-0.03754 h -0.599728 l 0.0362,-0.105833 c 0.01991,-0.05821 1.099414,-4.553569 2.398886,-9.989694 l 2.362692,-9.88386 0.597543,-9.74e-4 0.597544,-9.74e-4 0.672456,-2.809225 0.672457,-2.809224 0.250842,-0.06694 c 0.137964,-0.03681 0.899964,-0.111116 1.693333,-0.165112 l 1.442493,-0.09817 1.524,0.04916 1.524,0.04916 0.84578,0.132156 c 1.8059,0.282175 3.25362,0.791217 4.38256,1.540988 l 0.61366,0.407547 0.53169,0.53112 0.53168,0.531119 0.4684,0.71859 c 0.44079,0.676226 0.9659,1.710419 0.9659,1.902315 v 0.08653 h -0.55034 -0.55033 v 0.07402 c 0,0.04071 0.0562,0.233184 0.12479,0.427715 0.0686,0.194531 0.2047,0.761296 0.30236,1.259478 l 0.17757,0.905786 0.0473,1.312333 0.0473,1.312333 -0.0975,1.185334 c -0.11925,1.449614 -0.28566,2.490332 -0.60244,3.767667 -0.33515,1.351407 -0.68529,2.313948 -1.30896,3.598333 l -0.53446,1.100667 -0.503,0.762 c -0.27665,0.4191 -0.73362,1.04775 -1.01548,1.397 -0.60535,0.750079 -1.80978,1.92676 -2.5163,2.458297 l -0.50249,0.378037 0.54482,0.04233 0.54482,0.04233 -0.55229,0.349013 c -0.9168,0.579366 -1.93416,1.095392 -2.96362,1.503232 l -0.9759,0.38663 -1.165572,0.298729 -1.165564,0.29873 H 97.5555 96.923235 l -0.782261,0.123732 c -1.525558,0.241291 -4.260139,0.358538 -5.692919,0.244085 z m -66.11472,4.901505 c 0.657407,-0.96561 1.720765,-2.54623 2.363017,-3.512489 l 1.167733,-1.756833 0.600316,-0.0036 0.600317,-0.0036 0.901299,-1.414517 0.9013,-1.414526 -0.575784,-0.02471 -0.575785,-0.02472 0.865485,-1.372286 c 2.9375,-4.657615 6.812848,-11.196364 10.159291,-17.141461 l 0.822104,-1.460501 h 0.580973 0.580973 l 0.166942,-0.275166 c 0.277225,-0.456945 2.478615,-4.47537 4.348353,-7.937501 l 1.760397,-3.259667 -0.589585,-0.02485 -0.589587,-0.02485 0.252645,-0.447664 c 0.138956,-0.246216 0.252647,-0.492209 0.252647,-0.546653 v -0.09899 h -4.486115 -4.486115 l -0.255219,0.505586 c -0.14037,0.278072 -0.255219,0.525722 -0.255219,0.550333 0,0.02461 0.24765,0.04475 0.550334,0.04475 h 0.550333 v 0.08428 c 0,0.119204 -3.406261,6.830196 -4.727313,9.31372 l -1.103393,2.074333 -0.61948,0.02683 -0.619481,0.02684 -0.804333,1.496534 c -1.022873,1.903145 -3.626919,6.531718 -5.034426,8.948462 -1.279087,2.196245 -3.753258,6.318107 -4.900487,8.164001 L 21.3238,94.95022 21.283528,94.829545 c -0.0585,-0.175277 -0.845951,-6.610664 -1.194758,-9.764036 -0.244262,-2.208238 -0.644547,-6.251546 -0.937537,-9.470133 l -0.05202,-0.5715 h 0.609205 0.609204 L 20.265672,74.62171 C 20.207802,74.17369 19.57906,65.952538 19.488919,64.46518 l -0.05751,-0.94903 -0.602002,-0.02464 -0.602003,-0.02464 -0.02521,-0.529167 -0.02521,-0.529167 H 13.68261 9.1882381 l 0.05248,0.3175 c 0.028864,0.174625 0.052899,0.422275 0.053411,0.550334 l 9.319e-4,0.232833 h 0.5910536 0.5910534 l 0.0372,0.1905 c 0.02046,0.104775 0.177361,1.58115 0.348666,3.280834 0.281445,2.792489 0.718927,6.757889 0.84768,7.6835 l 0.05005,0.359833 H 11.155468 10.55017 l 0.04926,0.3175 c 0.02709,0.174625 0.126989,0.94615 0.221996,1.714501 0.482323,3.900682 1.539984,11.214219 2.287694,15.81901 0.184033,1.133374 0.334606,2.076349 0.334606,2.095501 0,0.01915 0.265974,0.03482 0.591054,0.03482 h 0.591053 l 0.044,0.1905 c 0.0242,0.104775 0.121241,0.6858 0.215643,1.291167 0.0944,0.605366 0.192193,1.167341 0.217316,1.248833 l 0.04568,0.148167 h -0.607795 -0.607795 l 0.04713,0.275167 c 0.23389,1.365648 1.173066,6.564004 1.200778,6.646334 l 0.03563,0.10583 3.960825,-10e-4 3.960824,-0.001 1.195284,-1.75565 z m 47.981146,1.22884 c 0.07297,-0.29104 0.440365,-1.82456 0.816424,-3.40783 0.376058,-1.583265 0.721356,-2.945341 0.767329,-3.026832 l 0.08359,-0.148167 h -8.85409 -8.854091 l 0.04607,-0.148167 c 0.02534,-0.08149 0.162895,-0.643466 0.305678,-1.248833 0.142782,-0.605367 0.279584,-1.167342 0.304005,-1.248833 l 0.0444,-0.148167 h -0.598372 c -0.329105,0 -0.597295,-0.0095 -0.595979,-0.02117 0.0013,-0.01164 1.078842,-4.497917 2.394502,-9.9695 l 2.39211,-9.948334 0.604917,-0.02475 0.604916,-0.02475 0.08754,-0.398583 c 0.04815,-0.219221 0.660558,-2.777416 1.360914,-5.684877 0.700356,-2.907461 1.273375,-5.317286 1.273375,-5.355167 v -0.06887 h -0.585004 -0.585003 l 0.118332,-0.4445 c 0.06508,-0.244475 0.118784,-0.492481 0.119336,-0.551124 l 0.001,-0.106623 -4.206646,0.02196 -4.206646,0.02196 -0.109721,0.423333 c -0.06035,0.232833 -0.110456,0.470958 -0.111354,0.529167 l -0.0016,0.105833 h 0.550333 0.550334 v 0.09981 c 0,0.08772 -2.416776,10.275679 -2.632502,11.097353 l -0.08336,0.3175 h -0.58779 -0.58779 l -0.04648,0.1905 c -0.500117,2.049554 -4.698076,19.671116 -4.698076,19.720883 v 0.06995 h 0.550333 0.550334 l 2.54e-4,0.105833 c 1.69e-4,0.05821 -0.141585,0.705909 -0.314934,1.439334 l -0.315179,1.3335 H 47.268525 46.67118 l -0.823695,3.450161 c -0.453032,1.8976 -0.823557,3.47875 -0.823388,3.51367 l 3.39e-4,0.0635 h 13.578708 13.578707 l 0.132681,-0.52917 z m 65.298968,-2.98416 0.84061,-3.513325 h 0.59764 0.59763 l 0.34183,-1.439333 0.34181,-1.439334 h -0.5895 -0.5895 l 0.0363,-0.148166 c 0.02,-0.08149 1.09898,-4.577292 2.39783,-9.990668 l 2.36154,-9.8425 0.59655,-6.78e-4 0.59655,-6.77e-4 0.63965,-2.687505 0.63966,-2.687504 6.27631,-0.02171 6.27631,-0.02171 0.0433,-0.147625 c 0.10223,-0.348209 1.40707,-5.784071 1.40707,-5.861711 v -0.08558 h -0.56092 -0.56091 l 0.0584,-0.275167 c 0.0321,-0.151341 0.08,-0.398991 0.10633,-0.550333 l 0.048,-0.275167 h -16.76502 -16.76504 l -0.0985,0.402167 c -0.0542,0.221192 -0.11844,0.468842 -0.14276,0.550333 l -0.0442,0.148167 h 0.60408 0.60408 l -0.0416,0.148167 c -0.0835,0.296698 -1.40913,5.841511 -1.40913,5.893554 v 0.05363 h 6.2744 6.27439 l -0.0389,0.105834 c -0.0214,0.05821 -0.31838,1.277408 -0.65997,2.709333 l -0.62107,2.6035 -0.59792,7.62e-4 -0.59792,7.62e-4 -2.36553,9.884079 c -1.30103,5.436241 -2.38144,9.931703 -2.40089,9.989911 l -0.0354,0.105834 h 0.61078 0.61079 l -0.0401,0.105833 c -0.022,0.05821 -0.1818,0.704308 -0.35505,1.435769 l -0.31501,1.329944 -0.60133,0.02472 -0.60133,0.02473 -0.82656,3.428994 c -0.45461,1.88595 -0.82841,3.45758 -0.83067,3.4925 l -0.004,0.0635 h 4.21823 4.21824 l 0.84059,-3.51332 z"
         id="path681" /></g></g></svg>
